@startuml
state jobControlSystem {
    state "starting" as 2360f313_3dde_4a59_8952_f0057154d62e_starting
    [*] --> 2360f313_3dde_4a59_8952_f0057154d62e_starting
    state "starting" as 2360f313_3dde_4a59_8952_f0057154d62e_starting : entry / <color:#27AE60>Assign{jobDone = false}()</color>; <color:#9B59B6>Raise{eProcessMessage}()</color>; 
    
    state "running" as 2360f313_3dde_4a59_8952_f0057154d62e_running
    
    state "jobDone" as 2360f313_3dde_4a59_8952_f0057154d62e_jobDone
    2360f313_3dde_4a59_8952_f0057154d62e_jobDone --> [*]
    state "jobDone" as 2360f313_3dde_4a59_8952_f0057154d62e_jobDone : entry / <color:#27AE60>Assign{jobDone = true}()</color>; <color:#9B59B6>Raise{eProcessMessage}()</color>; <color:#9B59B6>Raise{eJobDone}()</color>; 
    
    2360f313_3dde_4a59_8952_f0057154d62e_starting --> 2360f313_3dde_4a59_8952_f0057154d62e_running
    2360f313_3dde_4a59_8952_f0057154d62e_running -[dashed]-> 2360f313_3dde_4a59_8952_f0057154d62e_running : **eProductComplete**\n/ <color:#27AE60>Assign{productsCompleted = productsCompleted + 1}()</color>; 
    2360f313_3dde_4a59_8952_f0057154d62e_running --> 2360f313_3dde_4a59_8952_f0057154d62e_jobDone : \n[productsCompleted >= totalProducts]
}
state conveyorBeltSystem {
    state "loading" as ce8c8799_1b4a_4f94_8168_de08bd7d8f1d_loading
    [*] --> ce8c8799_1b4a_4f94_8168_de08bd7d8f1d_loading
    
    state "error" as ce8c8799_1b4a_4f94_8168_de08bd7d8f1d_error
    state "error" as ce8c8799_1b4a_4f94_8168_de08bd7d8f1d_error : entry / <color:#9B59B6>Raise{eProcessMessage}()</color>; 
    
    state "transporting" as ce8c8799_1b4a_4f94_8168_de08bd7d8f1d_transporting
    state "transporting" as ce8c8799_1b4a_4f94_8168_de08bd7d8f1d_transporting : entry / <color:#1F618D>Invoke{moveBelt}([])</color>; 
    state "transporting" as ce8c8799_1b4a_4f94_8168_de08bd7d8f1d_transporting : exit / <color:#1F618D>Invoke{stopBelt}([])</color>; 
    
    state "unloading" as ce8c8799_1b4a_4f94_8168_de08bd7d8f1d_unloading
    
    state "jobDone" as ce8c8799_1b4a_4f94_8168_de08bd7d8f1d_jobDone
    ce8c8799_1b4a_4f94_8168_de08bd7d8f1d_jobDone --> [*]
    
    ce8c8799_1b4a_4f94_8168_de08bd7d8f1d_loading --> ce8c8799_1b4a_4f94_8168_de08bd7d8f1d_error : **eObjectInvalid**
    ce8c8799_1b4a_4f94_8168_de08bd7d8f1d_loading --> ce8c8799_1b4a_4f94_8168_de08bd7d8f1d_transporting : **eObjectValid**
    ce8c8799_1b4a_4f94_8168_de08bd7d8f1d_loading --> ce8c8799_1b4a_4f94_8168_de08bd7d8f1d_jobDone : **eJobDone**
    ce8c8799_1b4a_4f94_8168_de08bd7d8f1d_loading --> ce8c8799_1b4a_4f94_8168_de08bd7d8f1d_jobDone : \n[jobDone]
    ce8c8799_1b4a_4f94_8168_de08bd7d8f1d_error --> ce8c8799_1b4a_4f94_8168_de08bd7d8f1d_transporting : **eObjectValid**
    ce8c8799_1b4a_4f94_8168_de08bd7d8f1d_error --> ce8c8799_1b4a_4f94_8168_de08bd7d8f1d_jobDone : **eJobDone**
    ce8c8799_1b4a_4f94_8168_de08bd7d8f1d_error --> ce8c8799_1b4a_4f94_8168_de08bd7d8f1d_jobDone : \n[jobDone]
    ce8c8799_1b4a_4f94_8168_de08bd7d8f1d_transporting --> ce8c8799_1b4a_4f94_8168_de08bd7d8f1d_unloading : **eStartUnload**\n/ <color:#27AE60>Assign{isUnloading = true}()</color>; 
    ce8c8799_1b4a_4f94_8168_de08bd7d8f1d_transporting --> ce8c8799_1b4a_4f94_8168_de08bd7d8f1d_jobDone : **eJobDone**
    ce8c8799_1b4a_4f94_8168_de08bd7d8f1d_transporting --> ce8c8799_1b4a_4f94_8168_de08bd7d8f1d_jobDone : \n[jobDone]
    ce8c8799_1b4a_4f94_8168_de08bd7d8f1d_unloading --> ce8c8799_1b4a_4f94_8168_de08bd7d8f1d_loading : **ePickedUp**\n/ <color:#27AE60>Assign{isUnloading = false}()</color>; 
    ce8c8799_1b4a_4f94_8168_de08bd7d8f1d_unloading --> ce8c8799_1b4a_4f94_8168_de08bd7d8f1d_jobDone : **eJobDone**\n/ <color:#27AE60>Assign{isUnloading = false}()</color>; 
    ce8c8799_1b4a_4f94_8168_de08bd7d8f1d_unloading --> ce8c8799_1b4a_4f94_8168_de08bd7d8f1d_jobDone : \n[jobDone]\n/ <color:#27AE60>Assign{isUnloading = false}()</color>; 
state beltSensorSystem {
    state "idle" as 0e3c3b1b_84d0_41bf_a8da_ef0be1de10ba_idle
    [*] --> 0e3c3b1b_84d0_41bf_a8da_ef0be1de10ba_idle
    
    state "scanning" as 0e3c3b1b_84d0_41bf_a8da_ef0be1de10ba_scanning
    state "scanning" as 0e3c3b1b_84d0_41bf_a8da_ef0be1de10ba_scanning : entry / <color:#1F618D>Invoke{takePhoto}([])</color>; <color:#1F618D>Invoke{uploadAndScanPhoto}([{photoPath = photoPath}])</color>; 
    state "scanning" as 0e3c3b1b_84d0_41bf_a8da_ef0be1de10ba_scanning : exit / <color:#27AE60>Assign{isScanning = false}()</color>; 
    
    0e3c3b1b_84d0_41bf_a8da_ef0be1de10ba_idle --> 0e3c3b1b_84d0_41bf_a8da_ef0be1de10ba_scanning : **eStartScan**\n/ <color:#27AE60>Assign{isScanning = true}()</color>; 
    0e3c3b1b_84d0_41bf_a8da_ef0be1de10ba_scanning --> 0e3c3b1b_84d0_41bf_a8da_ef0be1de10ba_idle : \n[validObject]\n/ <color:#9B59B6>Raise{eObjectValid}()</color>; 
    0e3c3b1b_84d0_41bf_a8da_ef0be1de10ba_scanning --> 0e3c3b1b_84d0_41bf_a8da_ef0be1de10ba_idle : \n[!validObject]\n/ <color:#9B59B6>Raise{eObjectInvalid}()</color>; 
}

state photoelectricSensor {
    state "idle" as baae5f64_b3e8_4805_9f27_708927ddfa61_idle
    [*] --> baae5f64_b3e8_4805_9f27_708927ddfa61_idle
    
    state "detecting" as baae5f64_b3e8_4805_9f27_708927ddfa61_detecting
    
    state "detected" as baae5f64_b3e8_4805_9f27_708927ddfa61_detected
    
    baae5f64_b3e8_4805_9f27_708927ddfa61_idle --> baae5f64_b3e8_4805_9f27_708927ddfa61_detecting : **eBeamDetection**\n[!isUnloading]
    baae5f64_b3e8_4805_9f27_708927ddfa61_detecting --> baae5f64_b3e8_4805_9f27_708927ddfa61_detected : **eCheckBeamDetection**\n[isBeamInterrupted]
    baae5f64_b3e8_4805_9f27_708927ddfa61_detecting --> baae5f64_b3e8_4805_9f27_708927ddfa61_detected : \n[isBeamInterrupted]
    baae5f64_b3e8_4805_9f27_708927ddfa61_detected --> baae5f64_b3e8_4805_9f27_708927ddfa61_idle : \n/ <color:#27AE60>Assign{isBeamInterrupted = false}()</color>; 
}

state photoelectricSensorStart {
    state "idle" as aad4b267_a10a_4b30_b56e_76b0c3b3f38d_idle
    [*] --> aad4b267_a10a_4b30_b56e_76b0c3b3f38d_idle
    
    state "detecting" as aad4b267_a10a_4b30_b56e_76b0c3b3f38d_detecting
    state "detecting" as aad4b267_a10a_4b30_b56e_76b0c3b3f38d_detecting : entry / <color:#1F618D>Invoke{beamDetectionStart}([])</color>; 
    
    state "detected" as aad4b267_a10a_4b30_b56e_76b0c3b3f38d_detected
    state "detected" as aad4b267_a10a_4b30_b56e_76b0c3b3f38d_detected : entry / <color:#9B59B6>Raise{eStartScan}()</color>; 
    
    aad4b267_a10a_4b30_b56e_76b0c3b3f38d_detecting --> aad4b267_a10a_4b30_b56e_76b0c3b3f38d_detected : **eCheckBeamDetection**\n[isBeamInterrupted]
    aad4b267_a10a_4b30_b56e_76b0c3b3f38d_detecting --> aad4b267_a10a_4b30_b56e_76b0c3b3f38d_detected : \n[isBeamInterrupted]
    aad4b267_a10a_4b30_b56e_76b0c3b3f38d_detected --> aad4b267_a10a_4b30_b56e_76b0c3b3f38d_idle : \n/ <color:#27AE60>Assign{isBeamInterrupted = false}()</color>; 
    aad4b267_a10a_4b30_b56e_76b0c3b3f38d_idle --> aad4b267_a10a_4b30_b56e_76b0c3b3f38d_detecting : **eBeamDetection**\n[!isScanning && !isUnloading]
}

state photoelectricSensorEnd {
    state "detecting" as 47fb6c58_3555_4868_b30a_3a10817660ee_detecting
    state "detecting" as 47fb6c58_3555_4868_b30a_3a10817660ee_detecting : entry / <color:#1F618D>Invoke{beamDetectionEnd}([])</color>; 
    
    state "detected" as 47fb6c58_3555_4868_b30a_3a10817660ee_detected
    state "detected" as 47fb6c58_3555_4868_b30a_3a10817660ee_detected : entry / <color:#9B59B6>Raise{eStartUnload}()</color>; 
    
    state "idle" as 47fb6c58_3555_4868_b30a_3a10817660ee_idle
    [*] --> 47fb6c58_3555_4868_b30a_3a10817660ee_idle
    
    47fb6c58_3555_4868_b30a_3a10817660ee_idle --> 47fb6c58_3555_4868_b30a_3a10817660ee_detecting : **eBeamDetection**\n[!isUnloading]
    47fb6c58_3555_4868_b30a_3a10817660ee_detecting --> 47fb6c58_3555_4868_b30a_3a10817660ee_detected : **eCheckBeamDetection**\n[isBeamInterrupted]
    47fb6c58_3555_4868_b30a_3a10817660ee_detecting --> 47fb6c58_3555_4868_b30a_3a10817660ee_detected : \n[isBeamInterrupted]
    47fb6c58_3555_4868_b30a_3a10817660ee_detected --> 47fb6c58_3555_4868_b30a_3a10817660ee_idle : \n/ <color:#27AE60>Assign{isBeamInterrupted = false}()</color>; 
}

}
state messageProcessor {
    state "idle" as fde327db_336e_48dd_ae6c_aa588b1ba928_idle
    [*] --> fde327db_336e_48dd_ae6c_aa588b1ba928_idle
    
    state "process" as fde327db_336e_48dd_ae6c_aa588b1ba928_process
    
    state "jobDone" as fde327db_336e_48dd_ae6c_aa588b1ba928_jobDone
    fde327db_336e_48dd_ae6c_aa588b1ba928_jobDone --> [*]
    
    fde327db_336e_48dd_ae6c_aa588b1ba928_idle --> fde327db_336e_48dd_ae6c_aa588b1ba928_process : **eProcessMessage**
    fde327db_336e_48dd_ae6c_aa588b1ba928_idle --> fde327db_336e_48dd_ae6c_aa588b1ba928_jobDone : **eJobDone**
    fde327db_336e_48dd_ae6c_aa588b1ba928_idle --> fde327db_336e_48dd_ae6c_aa588b1ba928_jobDone : \n[jobDone]
}
state smsProcessor {
    state "process" as 5a0caecc_3c12_4f0c_9c68_9b0b21168d76_process
    state "process" as 5a0caecc_3c12_4f0c_9c68_9b0b21168d76_process : entry / <color:#1F618D>Invoke{sendSms}([{smsText = msg}])</color>; 
    
    state "idle" as 5a0caecc_3c12_4f0c_9c68_9b0b21168d76_idle
    [*] --> 5a0caecc_3c12_4f0c_9c68_9b0b21168d76_idle
    
    state "jobDone" as 5a0caecc_3c12_4f0c_9c68_9b0b21168d76_jobDone
    5a0caecc_3c12_4f0c_9c68_9b0b21168d76_jobDone --> [*]
    
    5a0caecc_3c12_4f0c_9c68_9b0b21168d76_idle --> 5a0caecc_3c12_4f0c_9c68_9b0b21168d76_process : **eProcessMessage**
    5a0caecc_3c12_4f0c_9c68_9b0b21168d76_idle --> 5a0caecc_3c12_4f0c_9c68_9b0b21168d76_jobDone : **eJobDone**
    5a0caecc_3c12_4f0c_9c68_9b0b21168d76_idle --> 5a0caecc_3c12_4f0c_9c68_9b0b21168d76_jobDone : \n[jobDone]
    5a0caecc_3c12_4f0c_9c68_9b0b21168d76_process --> 5a0caecc_3c12_4f0c_9c68_9b0b21168d76_idle
}
state eMailProcessor {
    state "process" as 877d2f6d_86ff_4821_bd1b_01f985b38182_process
    state "process" as 877d2f6d_86ff_4821_bd1b_01f985b38182_process : entry / <color:#1F618D>Invoke{sendMail}([{mailBody = msg}])</color>; 
    
    state "idle" as 877d2f6d_86ff_4821_bd1b_01f985b38182_idle
    [*] --> 877d2f6d_86ff_4821_bd1b_01f985b38182_idle
    
    state "jobDone" as 877d2f6d_86ff_4821_bd1b_01f985b38182_jobDone
    877d2f6d_86ff_4821_bd1b_01f985b38182_jobDone --> [*]
    
    877d2f6d_86ff_4821_bd1b_01f985b38182_idle --> 877d2f6d_86ff_4821_bd1b_01f985b38182_process : **eProcessMessage**
    877d2f6d_86ff_4821_bd1b_01f985b38182_idle --> 877d2f6d_86ff_4821_bd1b_01f985b38182_jobDone : **eJobDone**
    877d2f6d_86ff_4821_bd1b_01f985b38182_idle --> 877d2f6d_86ff_4821_bd1b_01f985b38182_jobDone : \n[jobDone]
    877d2f6d_86ff_4821_bd1b_01f985b38182_process --> 877d2f6d_86ff_4821_bd1b_01f985b38182_idle
}
state logProcessor {
    state "process" as 7c017572_579a_46b4_93df_ae3fe068475e_process
    state "process" as 7c017572_579a_46b4_93df_ae3fe068475e_process : entry / <color:#27AE60>Assign{log = log.add(msg); log}()</color>; 
    
    state "idle" as 7c017572_579a_46b4_93df_ae3fe068475e_idle
    [*] --> 7c017572_579a_46b4_93df_ae3fe068475e_idle
    
    state "jobDone" as 7c017572_579a_46b4_93df_ae3fe068475e_jobDone
    7c017572_579a_46b4_93df_ae3fe068475e_jobDone --> [*]
    
    7c017572_579a_46b4_93df_ae3fe068475e_idle --> 7c017572_579a_46b4_93df_ae3fe068475e_process : **eProcessMessage**
    7c017572_579a_46b4_93df_ae3fe068475e_idle --> 7c017572_579a_46b4_93df_ae3fe068475e_jobDone : **eJobDone**
    7c017572_579a_46b4_93df_ae3fe068475e_idle --> 7c017572_579a_46b4_93df_ae3fe068475e_jobDone : \n[jobDone]
    7c017572_579a_46b4_93df_ae3fe068475e_process --> 7c017572_579a_46b4_93df_ae3fe068475e_idle
}
state roboticArmSystem {
    state "idle" as c0e7dcbc_fcb7_4ef8_8b1e_5adb714b692b_idle
    [*] --> c0e7dcbc_fcb7_4ef8_8b1e_5adb714b692b_idle
    
    state "error" as c0e7dcbc_fcb7_4ef8_8b1e_5adb714b692b_error
    state "error" as c0e7dcbc_fcb7_4ef8_8b1e_5adb714b692b_error : entry / <color:#9B59B6>Raise{eProcessMessage}()</color>; 
    
    state "pickup" as c0e7dcbc_fcb7_4ef8_8b1e_5adb714b692b_pickup
    state "pickup" as c0e7dcbc_fcb7_4ef8_8b1e_5adb714b692b_pickup : entry / <color:#1F618D>Invoke{pickUp}([])</color>; <color:#1ABC9C>Match()</color>; 
    
    state "assemble" as c0e7dcbc_fcb7_4ef8_8b1e_5adb714b692b_assemble
    state "assemble" as c0e7dcbc_fcb7_4ef8_8b1e_5adb714b692b_assemble : entry / <color:#1F618D>Invoke{assemble}([])</color>; <color:#1ABC9C>Match()</color>; 
    
    state "return" as c0e7dcbc_fcb7_4ef8_8b1e_5adb714b692b_return
    state "return" as c0e7dcbc_fcb7_4ef8_8b1e_5adb714b692b_return : entry / <color:#1F618D>Invoke{returnToStart}([])</color>; 
    
    state "jobDone" as c0e7dcbc_fcb7_4ef8_8b1e_5adb714b692b_jobDone
    c0e7dcbc_fcb7_4ef8_8b1e_5adb714b692b_jobDone --> [*]
    
    c0e7dcbc_fcb7_4ef8_8b1e_5adb714b692b_idle --> c0e7dcbc_fcb7_4ef8_8b1e_5adb714b692b_pickup : **eArmPickup**\n[!jobDone]
    c0e7dcbc_fcb7_4ef8_8b1e_5adb714b692b_idle --> c0e7dcbc_fcb7_4ef8_8b1e_5adb714b692b_jobDone : **eJobDone**
    c0e7dcbc_fcb7_4ef8_8b1e_5adb714b692b_idle --> c0e7dcbc_fcb7_4ef8_8b1e_5adb714b692b_pickup : \n[!pickUpSuccess]
    c0e7dcbc_fcb7_4ef8_8b1e_5adb714b692b_idle --> c0e7dcbc_fcb7_4ef8_8b1e_5adb714b692b_jobDone : \n[jobDone]
    c0e7dcbc_fcb7_4ef8_8b1e_5adb714b692b_error --> c0e7dcbc_fcb7_4ef8_8b1e_5adb714b692b_assemble : **eRetry**\n[pickUpSuccess]
    c0e7dcbc_fcb7_4ef8_8b1e_5adb714b692b_error --> c0e7dcbc_fcb7_4ef8_8b1e_5adb714b692b_jobDone : **eJobDone**
    c0e7dcbc_fcb7_4ef8_8b1e_5adb714b692b_pickup --> c0e7dcbc_fcb7_4ef8_8b1e_5adb714b692b_assemble : \n[pickUpSuccess]\n/ <color:#9B59B6>Raise{ePickedUp}()</color>; 
    c0e7dcbc_fcb7_4ef8_8b1e_5adb714b692b_assemble --> c0e7dcbc_fcb7_4ef8_8b1e_5adb714b692b_return : \n[assembleSuccess]\n/ <color:#27AE60>Assign{partsAssembled = partsAssembled + 1}()</color>; <color:#9B59B6>Raise{eAssembleComplete}()</color>; 
    c0e7dcbc_fcb7_4ef8_8b1e_5adb714b692b_return --> c0e7dcbc_fcb7_4ef8_8b1e_5adb714b692b_idle : \n[partsAssembled >= partsPerProduct]\n/ <color:#27AE60>Assign{partsAssembled = 0}()</color>; <color:#9B59B6>Raise{eProductComplete}()</color>; 
}
state monitoringSystem {
    state "monitoring" as 945ec0ee_93df_465b_bb2d_313438e53911_monitoring
    [*] --> 945ec0ee_93df_465b_bb2d_313438e53911_monitoring
    
    state "jobDone" as 945ec0ee_93df_465b_bb2d_313438e53911_jobDone
    945ec0ee_93df_465b_bb2d_313438e53911_jobDone --> [*]
    state "jobDone" as 945ec0ee_93df_465b_bb2d_313438e53911_jobDone : entry / <color:#1F618D>aSendStatistics{sendStatistics}([{nScans = nScans}, {nAssemblies = nAssemblies}, {nProductsCompleted = productsCompleted}, {jobDone = jobDone}, {log = log}])</color>; 
    
    945ec0ee_93df_465b_bb2d_313438e53911_monitoring -[dashed]-> 945ec0ee_93df_465b_bb2d_313438e53911_monitoring : **eStartScan**\n/ <color:#27AE60>Assign{nScans = nScans+1}()</color>; <color:#9B59B6>Raise{eSendStatistics}()</color>; 
    945ec0ee_93df_465b_bb2d_313438e53911_monitoring -[dashed]-> 945ec0ee_93df_465b_bb2d_313438e53911_monitoring : **eAssembleComplete**\n/ <color:#27AE60>Assign{nAssemblies = nAssemblies+1}()</color>; <color:#9B59B6>Raise{eSendStatistics}()</color>; 
    945ec0ee_93df_465b_bb2d_313438e53911_monitoring -[dashed]-> 945ec0ee_93df_465b_bb2d_313438e53911_monitoring : **eSendStatistics**\n/ <color:#1F618D>aSendStatistics{sendStatistics}([{nScans = nScans}, {nAssemblies = nAssemblies}, {nProductsCompleted = productsCompleted}, {jobDone = jobDone}, {log = log}])</color>; 
    945ec0ee_93df_465b_bb2d_313438e53911_monitoring --> 945ec0ee_93df_465b_bb2d_313438e53911_jobDone : **eJobDone**
    945ec0ee_93df_465b_bb2d_313438e53911_monitoring --> 945ec0ee_93df_465b_bb2d_313438e53911_jobDone : \n[jobDone]
}
@enduml